Topo_narrow_20170109.ufo
<glyph name="parenright" format="1">
  <advance width="335"/>
  <unicode hex="0029"/>
  <outline>
    <contour>
      <point x="62" y="771" type="line"/>
      <point x="112" y="671"/>
      <point x="167" y="534"/>
      <point x="167" y="384" type="curve"/>
      <point x="167" y="338" type="line"/>
      <point x="167" y="188"/>
      <point x="118" y="40"/>
      <point x="62" y="-80" type="curve"/>
      <point x="156" y="-80" type="line"/>
      <point x="213" y="35"/>
      <point x="273" y="176"/>
      <point x="273" y="343" type="curve"/>
      <point x="273" y="379" type="line"/>
      <point x="273" y="546"/>
      <point x="211" y="676"/>
      <point x="159" y="771" type="curve"/>
    </contour>
  </outline>
</glyph>
<glyph name="plus" format="1">
  <advance width="559"/>
  <unicode hex="002B"/>
  <outline>
    <contour>
      <point x="479" y="360" type="line"/>
      <point x="80" y="360" type="line"/>
      <point x="80" y="279" type="line"/>
      <point x="479" y="279" type="line"/>
    </contour>
    <contour>
      <point x="237" y="116" type="line"/>
      <point x="322" y="116" type="line"/>
      <point x="322" y="523" type="line"/>
      <point x="322" y="523"/>
      <point x="237" y="523"/>
      <point x="237" y="523" type="curve"/>
    </contour>
  </outline>
</glyph>
<glyph name="one" format="1">
  <advance width="413"/>
  <unicode hex="0031"/>
  <outline>
    <contour>
      <point x="33" y="592" type="line"/>
      <point x="33" y="496" type="line"/>
      <point x="76" y="519"/>
      <point x="186" y="594"/>
      <point x="186" y="617" type="curve"/>
      <point x="168" y="617" type="line"/>
      <point x="168" y="0" type="line"/>
      <point x="269" y="0" type="line"/>
      <point x="269" y="706" type="line"/>
      <point x="184" y="706" type="line"/>
    </contour>
  </outline>
</glyph>
<glyph name="three" format="1">
  <advance width="506"/>
  <unicode hex="0033"/>
  <outline>
    <contour>
      <point x="58" y="575" type="line"/>
      <point x="99" y="609"/>
      <point x="143" y="631"/>
      <point x="201" y="631" type="curve" smooth="yes"/>
      <point x="272" y="631"/>
      <point x="303" y="599"/>
      <point x="303" y="539" type="curve" smooth="yes"/>
      <point x="303" y="464"/>
      <point x="262" y="416"/>
      <point x="160" y="416" type="curve" smooth="yes"/>
      <point x="105" y="416" type="line"/>
      <point x="105" y="328" type="line"/>
      <point x="180" y="328" type="line" smooth="yes"/>
      <point x="275" y="328"/>
      <point x="327" y="289"/>
      <point x="327" y="214" type="curve" smooth="yes"/>
      <point x="327" y="124"/>
      <point x="275" y="72"/>
      <point x="191" y="72" type="curve" smooth="yes"/>
      <point x="125" y="72"/>
      <point x="82" y="92"/>
      <point x="38" y="121" type="curve"/>
      <point x="38" y="19" type="line"/>
      <point x="85" y="-3"/>
      <point x="130" y="-12"/>
      <point x="192" y="-12" type="curve" smooth="yes"/>
      <point x="342" y="-12"/>
      <point x="430" y="68"/>
      <point x="430" y="214" type="curve" smooth="yes"/>
      <point x="430" y="314"/>
      <point x="371" y="394"/>
      <point x="229" y="394" type="curve"/>
      <point x="229" y="360" type="line"/>
      <point x="313" y="360"/>
      <point x="406" y="419"/>
      <point x="406" y="541" type="curve" smooth="yes"/>
      <point x="406" y="653"/>
      <point x="334" y="721"/>
      <point x="201" y="721" type="curve" smooth="yes"/>
      <point x="143" y="721"/>
      <point x="92" y="697"/>
      <point x="58" y="675" type="curve"/>
    </contour>
  </outline>
</glyph>
<glyph name="eight" format="1">
  <advance width="572"/>
  <unicode hex="0038"/>
  <outline>
    <contour>
      <point x="284" y="721" type="curve" smooth="yes"/>
      <point x="144" y="721"/>
      <point x="69" y="655"/>
      <point x="69" y="528" type="curve" smooth="yes"/>
      <point x="69" y="404"/>
      <point x="169" y="346"/>
      <point x="280" y="344" type="curve"/>
      <point x="280" y="378" type="line"/>
      <point x="159" y="375"/>
      <point x="56" y="324"/>
      <point x="56" y="198" type="curve" smooth="yes"/>
      <point x="56" y="87"/>
      <point x="135" y="-12"/>
      <point x="284" y="-12" type="curve" smooth="yes"/>
      <point x="433" y="-12"/>
      <point x="512" y="87"/>
      <point x="512" y="198" type="curve"/>
      <point x="512" y="324"/>
      <point x="421" y="375"/>
      <point x="288" y="378" type="curve"/>
      <point x="288" y="344" type="line"/>
      <point x="401" y="346"/>
      <point x="499" y="404"/>
      <point x="499" y="528" type="curve" smooth="yes"/>
      <point x="499" y="655"/>
      <point x="424" y="721"/>
    </contour>
    <contour>
      <point x="284" y="631" type="curve" smooth="yes"/>
      <point x="361" y="631"/>
      <point x="399" y="600"/>
      <point x="399" y="528" type="curve" smooth="yes"/>
      <point x="399" y="458"/>
      <point x="361" y="400"/>
      <point x="284" y="400" type="curve"/>
      <point x="207" y="400"/>
      <point x="169" y="458"/>
      <point x="169" y="528" type="curve" smooth="yes"/>
      <point x="169" y="600"/>
      <point x="207" y="631"/>
    </contour>
    <contour>
      <point x="156" y="198" type="curve" smooth="yes"/>
      <point x="156" y="268"/>
      <point x="199" y="314"/>
      <point x="284" y="314" type="curve"/>
      <point x="369" y="314"/>
      <point x="412" y="268"/>
      <point x="412" y="198" type="curve" smooth="yes"/>
      <point x="412" y="125"/>
      <point x="369" y="72"/>
      <point x="284" y="72" type="curve" smooth="yes"/>
      <point x="199" y="72"/>
      <point x="156" y="125"/>
    </contour>
  </outline>
</glyph>
<glyph name="A" format="1">
  <advance width="532"/>
  <unicode hex="0041"/>
  <outline>
    <contour>
      <point x="400" y="245" type="line"/>
      <point x="122" y="245" type="line"/>
      <point x="122" y="159" type="line"/>
      <point x="400" y="159" type="line"/>
    </contour>
    <contour>
      <point x="131" y="0" type="line"/>
      <point x="269" y="685" type="line"/>
      <point x="263" y="685" type="line"/>
      <point x="401" y="0" type="line"/>
      <point x="506" y="0" type="line"/>
      <point x="356" y="706" type="line"/>
      <point x="176" y="706" type="line"/>
      <point x="26" y="0" type="line"/>
    </contour>
  </outline>
</glyph>
<glyph name="C" format="1">
  <advance width="559"/>
  <unicode hex="0043"/>
  <outline>
    <contour>
      <point x="513" y="582" type="curve"/>
      <point x="513" y="680" type="line"/>
      <point x="475" y="702"/>
      <point x="418" y="721"/>
      <point x="353" y="721" type="curve" smooth="yes"/>
      <point x="165" y="721"/>
      <point x="69" y="617"/>
      <point x="69.0" y="389.0" type="curve" smooth="yes"/>
      <point x="69" y="122"/>
      <point x="167" y="-12"/>
      <point x="342" y="-12" type="curve"/>
      <point x="411" y="-12"/>
      <point x="473" y="10"/>
      <point x="508" y="45" type="curve"/>
      <point x="508" y="139" type="line"/>
      <point x="466" y="105"/>
      <point x="432" y="74"/>
      <point x="342" y="74" type="curve"/>
      <point x="240" y="74"/>
      <point x="178" y="172"/>
      <point x="178.0" y="389.0" type="curve" smooth="yes"/>
      <point x="178" y="552"/>
      <point x="249" y="629"/>
      <point x="353" y="629" type="curve"/>
      <point x="423" y="629"/>
      <point x="464" y="606"/>
    </contour>
  </outline>
</glyph>
<glyph name="I" format="1">
  <advance width="303"/>
  <unicode hex="0049"/>
  <outline>
    <contour>
      <point x="282" y="0"/>
      <point x="282" y="89"/>
      <point x="282" y="89" type="curve"/>
      <point x="282" y="89"/>
      <point x="21" y="89"/>
      <point x="21" y="89" type="curve"/>
      <point x="21" y="89"/>
      <point x="21" y="0"/>
      <point x="21" y="0" type="curve"/>
      <point x="282" y="0" type="line"/>
    </contour>
    <contour>
      <point x="282" y="617"/>
      <point x="282" y="706"/>
      <point x="282" y="706" type="curve"/>
      <point x="21" y="706" type="line"/>
      <point x="21" y="706"/>
      <point x="21" y="617"/>
      <point x="21" y="617" type="curve"/>
      <point x="21" y="617"/>
      <point x="282" y="617"/>
      <point x="282" y="617" type="curve"/>
    </contour>
    <contour>
      <point x="203" y="0"/>
      <point x="203" y="706"/>
      <point x="203" y="706" type="curve"/>
      <point x="100" y="706" type="line"/>
      <point x="100" y="706"/>
      <point x="100" y="0"/>
      <point x="100" y="0" type="curve"/>
      <point x="203" y="0" type="line"/>
    </contour>
  </outline>
</glyph>
<glyph name="K" format="1">
  <advance width="524"/>
  <unicode hex="004B"/>
  <outline>
    <contour>
      <point x="417" y="0" type="curve"/>
      <point x="537" y="0" type="line"/>
      <point x="537" y="0"/>
      <point x="250" y="429"/>
      <point x="250" y="429" type="curve"/>
      <point x="250" y="318" type="line"/>
      <point x="250" y="318"/>
      <point x="511" y="706"/>
      <point x="511" y="706" type="curve"/>
      <point x="392" y="706" type="line"/>
      <point x="179" y="393" type="line"/>
      <point x="179" y="353" type="line"/>
      <point x="179" y="353"/>
      <point x="417" y="0"/>
    </contour>
    <contour>
      <point x="183" y="0"/>
      <point x="183" y="706"/>
      <point x="183" y="706" type="curve"/>
      <point x="80" y="706" type="line"/>
      <point x="80" y="706"/>
      <point x="80" y="0"/>
      <point x="80" y="0" type="curve"/>
      <point x="183" y="0" type="line"/>
    </contour>
  </outline>
</glyph>
<glyph name="R" format="1">
  <advance width="519"/>
  <unicode hex="0052"/>
  <outline>
    <contour>
      <point x="164" y="376" type="line"/>
      <point x="278" y="376" type="line"/>
      <point x="497" y="0" type="line"/>
      <point x="380" y="0" type="line"/>
    </contour>
    <contour>
      <point x="157" y="706" type="line"/>
      <point x="303" y="706" type="line"/>
      <point x="435" y="706"/>
      <point x="491" y="637"/>
      <point x="491" y="523" type="curve" smooth="yes"/>
      <point x="491" y="379"/>
      <point x="385" y="301"/>
      <point x="230" y="301" type="curve"/>
      <point x="193" y="363" type="line"/>
      <point x="103" y="363" type="line"/>
      <point x="103" y="383" type="line"/>
      <point x="227" y="383" type="line"/>
      <point x="353" y="383"/>
      <point x="386" y="423"/>
      <point x="386" y="523" type="curve" smooth="yes"/>
      <point x="386" y="589"/>
      <point x="356" y="614"/>
      <point x="258" y="614" type="curve"/>
      <point x="157" y="614" type="line"/>
    </contour>
    <contour>
      <point x="183" y="706"/>
      <point x="183" y="0"/>
      <point x="183" y="0" type="curve"/>
      <point x="80" y="0" type="line"/>
      <point x="80" y="0"/>
      <point x="80" y="706"/>
      <point x="80" y="706" type="curve"/>
      <point x="183" y="706" type="line"/>
    </contour>
  </outline>
</glyph>
<glyph name="bracketright" format="1">
  <advance width="344"/>
  <unicode hex="005D"/>
  <outline>
    <contour>
      <point x="171" y="682" type="line"/>
      <point x="19" y="682" type="line"/>
      <point x="19" y="774" type="line"/>
      <point x="277" y="774" type="line"/>
      <point x="277" y="431" type="line"/>
      <point x="277" y="302" type="line"/>
      <point x="277" y="-141" type="line"/>
      <point x="19" y="-141" type="line"/>
      <point x="19" y="-55" type="line"/>
      <point x="171" y="-55" type="line"/>
      <point x="171" y="302" type="line"/>
      <point x="171" y="401" type="line"/>
    </contour>
  </outline>
</glyph>
<glyph name="a" format="1">
  <advance width="469"/>
  <unicode hex="0061"/>
  <outline>
    <contour>
      <point x="178" y="538"/>
      <point x="120" y="523"/>
      <point x="78" y="506" type="curve"/>
      <point x="78" y="408" type="line"/>
      <point x="116" y="433"/>
      <point x="160" y="451"/>
      <point x="211" y="451" type="curve" smooth="yes"/>
      <point x="274" y="451"/>
      <point x="300" y="423"/>
      <point x="300" y="349" type="curve" smooth="yes"/>
      <point x="300" y="129" type="line" smooth="yes"/>
      <point x="300" y="100" type="line"/>
      <point x="324" y="80" type="line"/>
      <point x="329" y="58"/>
      <point x="321" y="33"/>
      <point x="327" y="0" type="curve"/>
      <point x="418" y="0" type="line"/>
      <point x="408" y="58"/>
      <point x="397" y="102"/>
      <point x="397" y="180" type="curve" smooth="yes"/>
      <point x="397" y="343" type="line" smooth="yes"/>
      <point x="397" y="473"/>
      <point x="341" y="538"/>
      <point x="230" y="538" type="curve" smooth="yes"/>
    </contour>
    <contour>
      <point x="341" y="305" type="line"/>
      <point x="299" y="316"/>
      <point x="264" y="324"/>
      <point x="214" y="324" type="curve" smooth="yes"/>
      <point x="110" y="324"/>
      <point x="33" y="274"/>
      <point x="33" y="167" type="curve" smooth="yes"/>
      <point x="33" y="53"/>
      <point x="97" y="-12"/>
      <point x="184" y="-12" type="curve" smooth="yes"/>
      <point x="252" y="-12"/>
      <point x="304" y="26"/>
      <point x="329" y="61" type="curve"/>
      <point x="324" y="94" type="line"/>
      <point x="309" y="114" type="line"/>
      <point x="284" y="89"/>
      <point x="248" y="68"/>
      <point x="207" y="68" type="curve"/>
      <point x="154" y="68"/>
      <point x="132" y="106"/>
      <point x="132" y="167" type="curve"/>
      <point x="132" y="232"/>
      <point x="164" y="255"/>
      <point x="242" y="255" type="curve" smooth="yes"/>
      <point x="278" y="255"/>
      <point x="320" y="247"/>
      <point x="341" y="247" type="curve"/>
    </contour>
  </outline>
</glyph>
<glyph name="b" format="1">
  <advance width="535"/>
  <unicode hex="0062"/>
  <outline>
    <contour>
      <point x="179" y="79" type="curve"/>
      <point x="179" y="404" type="line"/>
      <point x="215" y="431"/>
      <point x="251" y="454"/>
      <point x="292" y="454" type="curve" smooth="yes"/>
      <point x="363" y="454"/>
      <point x="377" y="411"/>
      <point x="377" y="295" type="curve" smooth="yes"/>
      <point x="377" y="139"/>
      <point x="331" y="70"/>
      <point x="245" y="70" type="curve" smooth="yes"/>
      <point x="215" y="70"/>
      <point x="195" y="75"/>
    </contour>
    <contour>
      <point x="120" y="434" type="curve"/>
      <point x="78" y="239" type="line"/>
      <point x="78" y="23" type="line"/>
      <point x="124" y="5"/>
      <point x="200" y="-10"/>
      <point x="255" y="-10" type="curve" smooth="yes"/>
      <point x="387" y="-10"/>
      <point x="480" y="99"/>
      <point x="480" y="295" type="curve" smooth="yes"/>
      <point x="480" y="473"/>
      <point x="418" y="538"/>
      <point x="319" y="538" type="curve" smooth="yes"/>
      <point x="236" y="538"/>
      <point x="172" y="478"/>
    </contour>
    <contour>
      <point x="150" y="234" type="line"/>
      <point x="150" y="234"/>
      <point x="179" y="234"/>
      <point x="179" y="234" type="curve"/>
      <point x="179" y="746" type="line"/>
      <point x="179" y="746"/>
      <point x="78" y="746"/>
      <point x="78" y="746" type="curve"/>
      <point x="78" y="234" type="line"/>
    </contour>
  </outline>
</glyph>
<glyph name="c" format="1">
  <advance width="440"/>
  <unicode hex="0063"/>
  <outline>
    <contour>
      <point x="274" y="538" type="curve" smooth="yes"/>
      <point x="140" y="538"/>
      <point x="48" y="475"/>
      <point x="48" y="295" type="curve" smooth="yes"/>
      <point x="48" y="76"/>
      <point x="139" y="-12"/>
      <point x="267" y="-12" type="curve" smooth="yes"/>
      <point x="319" y="-12"/>
      <point x="370" y="0"/>
      <point x="401" y="14" type="curve"/>
      <point x="401" y="106" type="line"/>
      <point x="370" y="88"/>
      <point x="328" y="71"/>
      <point x="269" y="71" type="curve" smooth="yes"/>
      <point x="203" y="71"/>
      <point x="150" y="116"/>
      <point x="150" y="295" type="curve" smooth="yes"/>
      <point x="150" y="402"/>
      <point x="185" y="454"/>
      <point x="272" y="454" type="curve" smooth="yes"/>
      <point x="326" y="454"/>
      <point x="379" y="432"/>
      <point x="407" y="416" type="curve"/>
      <point x="407" y="516" type="line"/>
      <point x="376" y="526"/>
      <point x="317" y="538"/>
    </contour>
  </outline>
</glyph>
<glyph name="g" format="1">
  <advance width="535"/>
  <unicode hex="0067"/>
  <outline>
    <contour>
      <point x="457" y="421" type="line"/>
      <point x="403" y="468"/>
      <point x="333" y="538"/>
      <point x="229" y="538" type="curve" smooth="yes"/>
      <point x="94" y="538"/>
      <point x="56" y="426"/>
      <point x="56" y="295" type="curve" smooth="yes"/>
      <point x="56" y="126"/>
      <point x="104" y="-12"/>
      <point x="232" y="-12" type="curve" smooth="yes"/>
      <point x="322" y="-12"/>
      <point x="379" y="49"/>
      <point x="413" y="93" type="curve"/>
    </contour>
    <contour>
      <point x="356" y="126" type="line"/>
      <point x="330" y="92"/>
      <point x="302" y="71"/>
      <point x="251" y="71" type="curve" smooth="yes"/>
      <point x="187" y="71"/>
      <point x="159" y="149"/>
      <point x="159" y="295" type="curve" smooth="yes"/>
      <point x="159" y="405"/>
      <point x="178" y="454"/>
      <point x="250" y="454" type="curve" smooth="yes"/>
      <point x="294" y="454"/>
      <point x="330" y="441"/>
      <point x="356" y="422" type="curve"/>
    </contour>
    <contour>
      <point x="356" y="50" type="line"/>
      <point x="457" y="50" type="line"/>
      <point x="457" y="349" type="line" smooth="yes"/>
      <point x="457" y="419"/>
      <point x="471" y="477"/>
      <point x="481" y="526" type="curve"/>
      <point x="391" y="526" type="line"/>
      <point x="385" y="493"/>
      <point x="389" y="470"/>
      <point x="384" y="446" type="curve"/>
      <point x="356" y="434" type="line" smooth="yes"/>
    </contour>
    <contour>
      <point x="457" y="56" type="line"/>
      <point x="356" y="56" type="line"/>
      <point x="356" y="-25" type="line" smooth="yes"/>
      <point x="356" y="-121"/>
      <point x="295" y="-145"/>
      <point x="238" y="-145" type="curve" smooth="yes"/>
      <point x="180" y="-145"/>
      <point x="137" y="-131"/>
      <point x="90" y="-104" type="curve"/>
      <point x="90" y="-206" type="line"/>
      <point x="132" y="-219"/>
      <point x="189" y="-228"/>
      <point x="242" y="-228" type="curve" smooth="yes"/>
      <point x="367" y="-228"/>
      <point x="457" y="-162"/>
      <point x="457" y="-6" type="curve" smooth="yes"/>
    </contour>
  </outline>
</glyph>
<glyph name="k" format="1">
  <advance width="448"/>
  <unicode hex="006B"/>
  <outline>
    <contour>
      <point x="357" y="0" type="line"/>
      <point x="466" y="0" type="line"/>
      <point x="265" y="321" type="line"/>
      <point x="265" y="259" type="line"/>
      <point x="439" y="526" type="line"/>
      <point x="326" y="526" type="line"/>
      <point x="175" y="296" type="line"/>
      <point x="175" y="284" type="line"/>
    </contour>
    <contour>
      <point x="183" y="0" type="line"/>
      <point x="183" y="746" type="line"/>
      <point x="82" y="746" type="line"/>
      <point x="82" y="0" type="line"/>
    </contour>
  </outline>
</glyph>
<glyph name="n" format="1">
  <advance width="533"/>
  <unicode hex="006E"/>
  <outline>
    <contour>
      <point x="179" y="0" type="line"/>
      <point x="179" y="424" type="line" smooth="yes"/>
      <point x="151" y="446" type="line"/>
      <point x="146" y="470"/>
      <point x="154" y="493"/>
      <point x="148" y="526" type="curve"/>
      <point x="58" y="526" type="line"/>
      <point x="66" y="476"/>
      <point x="78" y="419"/>
      <point x="78" y="349" type="curve" smooth="yes"/>
      <point x="78" y="0" type="line"/>
    </contour>
    <contour>
      <point x="179" y="393" type="curve"/>
      <point x="209" y="422"/>
      <point x="245" y="454"/>
      <point x="292" y="454" type="curve" smooth="yes"/>
      <point x="344" y="454"/>
      <point x="357" y="425"/>
      <point x="357" y="352" type="curve" smooth="yes"/>
      <point x="357" y="0" type="line"/>
      <point x="458" y="0" type="line"/>
      <point x="458" y="374" type="line" smooth="yes"/>
      <point x="458" y="485"/>
      <point x="407" y="538"/>
      <point x="321" y="538" type="curve" smooth="yes"/>
      <point x="246" y="538"/>
      <point x="191" y="492"/>
      <point x="150" y="453" type="curve"/>
      <point x="150" y="290" type="line"/>
      <point x="179" y="290" type="line"/>
      <point x="179" y="290"/>
      <point x="179" y="393"/>
    </contour>
  </outline>
</glyph>
<glyph name="q" format="1">
  <advance width="535"/>
  <unicode hex="0071"/>
  <outline>
    <contour>
      <point x="356" y="126" type="line"/>
      <point x="330" y="92"/>
      <point x="302" y="71"/>
      <point x="251" y="71" type="curve" smooth="yes"/>
      <point x="187" y="71"/>
      <point x="159" y="149"/>
      <point x="159" y="295" type="curve" smooth="yes"/>
      <point x="159" y="405"/>
      <point x="178" y="454"/>
      <point x="250" y="454" type="curve" smooth="yes"/>
      <point x="294" y="454"/>
      <point x="330" y="441"/>
      <point x="356" y="422" type="curve"/>
    </contour>
    <contour>
      <point x="457" y="421" type="line"/>
      <point x="403" y="468"/>
      <point x="333" y="538"/>
      <point x="229" y="538" type="curve" smooth="yes"/>
      <point x="94" y="538"/>
      <point x="56" y="426"/>
      <point x="56" y="295" type="curve" smooth="yes"/>
      <point x="56" y="126"/>
      <point x="104" y="-12"/>
      <point x="232" y="-12" type="curve" smooth="yes"/>
      <point x="322" y="-12"/>
      <point x="379" y="49"/>
      <point x="413" y="93" type="curve"/>
    </contour>
    <contour>
      <point x="356" y="-216" type="line"/>
      <point x="457" y="-216" type="line"/>
      <point x="457" y="349" type="line" smooth="yes"/>
      <point x="457" y="419"/>
      <point x="471" y="477"/>
      <point x="481" y="526" type="curve"/>
      <point x="391" y="526" type="line"/>
      <point x="385" y="493"/>
      <point x="389" y="470"/>
      <point x="384" y="446" type="curve"/>
      <point x="356" y="424" type="line" smooth="yes"/>
    </contour>
  </outline>
</glyph>
<glyph name="v" format="1">
  <advance width="454"/>
  <unicode hex="0076"/>
  <outline>
    <contour>
      <point x="143" y="0" type="line"/>
      <point x="311" y="0" type="line"/>
      <point x="432" y="526" type="line"/>
      <point x="332" y="526" type="line"/>
      <point x="225" y="32" type="line"/>
      <point x="229" y="32" type="line"/>
      <point x="122" y="526" type="line"/>
      <point x="22" y="526" type="line"/>
    </contour>
  </outline>
</glyph>
<glyph name="bar" format="1">
  <advance width="268"/>
  <unicode hex="007C"/>
  <outline>
    <contour>
      <point x="84" y="0" type="line"/>
      <point x="184" y="0" type="line"/>
      <point x="184" y="750" type="line"/>
      <point x="184" y="750"/>
      <point x="84" y="750"/>
      <point x="84" y="750" type="curve"/>
    </contour>
  </outline>
</glyph>
<glyph name="divide" format="1">
  <advance width="559"/>
  <unicode hex="00F7"/>
  <outline>
    <contour>
      <point x="479" y="360" type="line"/>
      <point x="80" y="360" type="line"/>
      <point x="80" y="279" type="line"/>
      <point x="479" y="279" type="line"/>
    </contour>
    <contour>
      <point x="235" y="446" type="line"/>
      <point x="324" y="446" type="line"/>
      <point x="324" y="547" type="line"/>
      <point x="324" y="547"/>
      <point x="235" y="547"/>
      <point x="235" y="547" type="curve"/>
    </contour>
    <contour>
      <point x="235" y="92" type="line"/>
      <point x="324" y="92" type="line"/>
      <point x="324" y="193" type="line"/>
      <point x="324" y="193"/>
      <point x="235" y="193"/>
      <point x="235" y="193" type="curve"/>
    </contour>
  </outline>
</glyph>
<glyph name="minus" format="1">
  <advance width="559"/>
  <unicode hex="2212"/>
  <outline>
    <contour>
      <point x="479" y="360" type="line"/>
      <point x="80" y="360" type="line"/>
      <point x="80" y="279" type="line"/>
      <point x="479" y="279" type="line"/>
    </contour>
  </outline>
</glyph>
